<?xml version="1.0" encoding="UTF-8"?><svg id="Layer_1" xmlns="http://www.w3.org/2000/svg" viewBox="0 0 743.63 1035.97"><path d="M739.16,0v736.06l-212.7,188.69H228.86c-84.9-79.43-192.26-179.91-221.32-207.11-2.48.99-5,1.94-7.54,2.87V0h739.16Z" style="fill:#fff;"/><path d="M739.16,618.39v117.67l-212.7,188.69-100.78,89.4c-2.07,1.89-4.24,3.65-6.49,5.27-.55.41-1.11.82-1.66,1.21-.31.23-.62.45-.94.67-.07.06-.14.1-.21.14-.54.35-1.06.71-1.6,1.06-8.97,5.75-19.01,9.75-29.57,11.57-5.93,1.02-12.36,1.75-18.64,1.76-10.79.03-21.14-2.04-27.88-8.32-7.25-6.77-53.63-50.15-109.84-102.75-84.9-79.43-192.26-179.91-221.32-207.11-1.59-1.48-2.95-2.75-4.06-3.79-2.27-2.11-3.48-3.25-3.48-3.25v-127.03l72.69,68.86,16.38,15.51,248.29,235.2s11.71,9.35,29.28,11.45h.01c10.57,1.28,23.28-.07,36.83-7.68.04-.03.11-.06.2-.1,1.94-1.09,3.9-2.31,5.88-3.68,37.57-25.92,311.79-268.98,328.77-284.03l.82-.72Z" style="fill:#014f98;"/><path d="M366.57,914.6s28.19,0,42.99-11.45l329.6-284.76v114.32l-313.94,281.69c-10.37,9.49-23.04,16.2-36.79,19.14-7.83,1.67-16.09,2.89-21.86,2.28v-121.21Z" style="fill:#243772;"/><path d="M122.22,602.6l8.21-117.91,212.95,201.72s33.43,26.74,72.2,0c38.78-26.74,323.58-284.81,323.58-284.81v117.67l-304.05,275.03c-15.77,14.26-35.79,23.26-57.01,24.59-12.68.8-25.51-.78-33.39-8.13-20.06-18.72-222.5-208.16-222.5-208.16Z" style="fill:#014f98;"/><path d="M372.59,697.86s28.19,0,42.99-11.45l323.58-284.81v114.32l-304.96,279.02c-13.56,12.41-30.43,20.81-48.62,23.47-4.83.71-9.4,1.04-13,.65v-121.21Z" style="fill:#243772;"/><path d="M408.81,609.19s8.24-3.47,12.81-7.47c4.57-4.01-2.78,8.7-2.78,8.7l-10.03-1.23Z" style="fill:#fff;"/><path d="M130.43,484.69s-63.87,70.17-4.44,121.38l26.73-100.27-22.29-21.11h0Z" style="fill:#014f98;"/><path d="M227.27,492.81l15.15-105.79,100.95,94.34s33.43,26.74,72.2,0c38.78-26.74,323.58-284.81,323.58-284.81v117.67l-322.24,291.49s-52.15,18.72-72.2,0c-20.06-18.72-117.44-112.9-117.44-112.9Z" style="fill:#014f98;"/><path d="M372.59,492.81s28.19,0,42.99-11.45l323.58-284.81v114.32l-322.24,294.83s-29.94,9.84-44.33,8.31v-121.21Z" style="fill:#243772;"/><path d="M227.27,492.81s-29.42-72.81,15.15-105.79l-15.15,105.79Z" style="fill:#014f98;"/><polygon points="366.57 417.33 366.57 306.79 310.17 359.83 366.57 417.33" style="fill:#014f98;"/><polygon points="425.88 359.83 369.49 417.33 369.49 306.79 425.88 359.83" style="fill:#243772;"/><path d="M369.49,236.57s22.47,1.13,28.2,6.75c3.39,3.32,108.82,96.27,108.82,96.27,0,0,44.41-26.34,23.4-83.1-5.18-13.99-14.03-26.34-25.4-36l-121.9-103.54s-13.36-6.44-13.36-2.42l.25,122.04Z" style="fill:#df0b19;"/><path d="M369.24,112.24s10.46,2.26,13.36,4.72l-13.11,1.18-.25-5.9h0Z" style="fill:#df0b19;"/><path d="M0,553.42L331.81,249.95c4.72-4.31,10.29-7.57,16.36-9.58,7.25-2.4,16.64-4.93,21.31-3.79l-.25-124.33s-50.6,21.39-108.76,79.56C202.31,249.97,0,429.81,0,429.81v123.61Z" style="fill:#e0313a;"/><polygon points="0 121.6 136.79 0 0 0 0 121.6" style="fill:#e0313a;"/><polygon points="739.16 124.52 739.16 0 604.11 0 739.16 124.52" style="fill:#d80f16;"/><path d="M0,338.22L326.66,39.37s23.47-19.39,42.82-16.05V0h-129.07L0,217.21v121.01Z" style="fill:#e0313a;"/><path d="M369.24,23.33l28.2,2.67,223.81,207.92c29.52-31.08,28.57-62.98,22.6-84.25-3.75-13.33-11.35-25.26-21.64-34.52L494.22,0h-124.98v23.33Z" style="fill:#d80f16;"/><path d="M401.45,29.49s-5.4-3.65-9.93-4.08,3.57-3.43,3.57-3.43l6.37,7.51Z" style="fill:#d80f16;"/><path d="M739.16,288.74c-2.65,2.27-6.36,4.26-11.45,5.71l-39.66-4.81s-18.13.61-23.7,15.2c-5.59,14.61-12.31,79.64-62.33,94.21l-35.54,69.84-1.46,2.88-6.94,13.63s-8.5,5.71-18.57,9.44c-.75.28-1.5.55-2.27.81-8.6,2.85-17.94,3.92-23.96-1.31-13.71-11.92,21.82-26.17,21.82-26.17l25.85-50.04.62-1.19.7-1.36s-.2.13-.58.35c-1.29.77-4.73,2.77-10.13,5.49-12.87,6.47-36.91,17.05-69.71,24.91,0,0-4.14,4.84-10.67,12.28-4.54,5.18-10.25,11.63-16.52,18.57-18.78,20.81-42.63,46.1-55.46,55.39-6.54,4.73-16.11,13.74-26.59,24.73-11.72,12.29-24.57,27.08-35.59,41.15-14.18,18.1-25.31,35.02-27.08,43.96,0,0,20.24,18.54,34.19,44.56,8.08,15.06,14.05,32.65,12.77,50.59,0,0-14.44,31.5-22.38,10.49l-10.59-40.23s-2.57-15.3-23.96-32.96c-21.39-17.66-34.53-37.09-34.53-37.09,0,0-5.75-7.45,6.88-18.68.18-.17.38-.34.58-.51,7.44-6.39,24.3-25.27,39.63-43.55,12.32-14.66,23.65-28.94,28.3-36.04,10.45-15.94,4.32-25.58-12.51-39.26-16.82-13.7-60.99-47.76-60.99-47.76,0,0-11.97-15.02-32.33,12.35-1.35,1.8-2.91,4.29-4.7,7.38-1.85,3.19-3.95,7.04-6.29,11.43-7.89,14.73-18.67,35.64-32.73,59.2-14.12,23.68-31.58,50.04-52.8,75.49-14.63,17.54-31.04,34.65-49.4,50.15-23.82,20.13-50.89,37.56-81.53,49.69-2.48.99-5,1.94-7.54,2.87-3.85,1.39-7.76,2.7-11.72,3.92,0,0,4.39-2.78,11.72-8.05,1.09-.79,2.26-1.63,3.48-2.53,16.11-11.8,42.81-33.03,69.21-61.42,15.32-16.47,30.55-35.36,43.52-56.21,2.54-4.05,4.98-8.16,7.31-12.36,6.44-11.53,12.12-23.58,16.72-36.11,1.39-3.79,2.82-7.57,4.3-11.28,3.69-9.37,7.59-18.5,11.67-27.37,38.85-85,91.18-145.76,91.18-145.76,0,0,82.38-83.21,204.99-71.5,11.3,1.06,22.92,2.95,34.86,5.78,17.1,4.05,32.04,6.76,45.1,8.39,95.05,11.87,90.09-33.24,90.09-33.24l4.31-35.15,1.18-11.38,3.85-37.05s1.59-13.94,14.75-5.31c1.79,1.15,3.79,2.74,6.03,4.84l14.72,32.82.94,2.1,17.26,10.66,6.34,3.92.71.44,18.68,11.54,18.37,9.77,9.58,4.03,4.2,1.77s6.7,13.74-4.2,22.98Z" style="fill:#3f5561; stroke:#fff; stroke-miterlimit:10; stroke-width:4px;"/><path d="M566.56,374.03s-11.24,45.57-16.99,50.05l11.88-6.23,5.11-43.82Z" style="fill:#fff;"/><path d="M454.59,477.3s14.9-50.54-18.81-78.19l-3.99-5.01,21.76,16.94s20.88,18.9,17.21,53.21l-16.17,13.05Z" style="fill:#fff;"/><path d="M650.37,240.1l33.75-37.06s18.51-4.61,10.4,9.92c-8.11,14.53-14.42,38.86-14.42,38.86" style="fill:#3f5561;"/><path d="M650.22,239.97c8.28-9.68,24.71-28.67,33.11-38.24,5.01-1.34,14.47-2.42,15.05,4.89.08,2.75-1.03,5.21-2.2,7.49-1.46,2.84-2.82,5.77-4.13,8.7-4.21,9.46-7.83,19.27-11.75,29.06,0,0-.39-.1-.39-.1,2.09-13.06,5.67-26.05,11.78-37.83.91-1.72,2.77-4.63,3-6.5.9-4.71-7.3-3.5-10.21-2.97,0,0,.73-.43.73-.43-8.58,9.08-25.99,27.24-34.69,36.21,0,0-.3-.27-.3-.27h0Z" style="fill:#fff;"/></svg>