<?xml version="1.0" encoding="UTF-8"?><svg id="Layer_1" xmlns="http://www.w3.org/2000/svg" viewBox="0 0 1074.36 498.88"><path d="M355.95,0v354.45l-102.43,90.86H110.21c-40.88-38.25-92.59-86.64-106.58-99.73-1.2.48-2.41.94-3.63,1.38V0h355.94Z" style="fill:#fff;"/><path d="M355.95,297.79v56.67l-102.43,90.86-48.53,43.05c-1,.91-2.04,1.76-3.12,2.54-.27.2-.53.4-.8.58-.15.11-.3.22-.45.32-.03.03-.07.05-.1.07-.26.17-.51.34-.77.51-4.32,2.77-9.15,4.7-14.24,5.57-2.86.49-5.95.84-8.97.85-5.19.01-10.18-.98-13.42-4.01-3.49-3.26-25.82-24.15-52.89-49.48-40.88-38.25-92.59-86.64-106.58-99.73-.77-.71-1.42-1.33-1.95-1.82-1.09-1.02-1.67-1.57-1.67-1.57v-61.17l35,33.16,7.89,7.47,119.56,113.26s5.64,4.5,14.1,5.52h0c5.09.62,11.21-.03,17.74-3.7.02-.01.05-.03.1-.05.94-.53,1.88-1.11,2.83-1.77,18.09-12.48,150.15-129.53,158.32-136.78l.4-.35Z" style="fill:#00519c;"/><path d="M176.53,440.43s13.57,0,20.7-5.52l158.72-137.13v55.05l-151.18,135.65c-5,4.57-11.09,7.8-17.72,9.22-3.77.81-7.75,1.39-10.53,1.1v-58.37Z" style="fill:#1e3876;"/><path d="M58.86,290.19l3.95-56.78,102.55,97.14s16.1,12.88,34.77,0c18.67-12.88,155.82-137.15,155.82-137.15v56.66l-146.42,132.44c-7.59,6.87-17.24,11.2-27.45,11.84-6.1.38-12.28-.37-16.08-3.92-9.66-9.01-107.14-100.24-107.14-100.24Z" style="fill:#00519c;"/><path d="M179.42,336.06s13.57,0,20.7-5.52l155.82-137.15v55.05l-146.86,134.36c-6.53,5.98-14.65,10.02-23.41,11.3-2.33.34-4.53.5-6.26.32v-58.37Z" style="fill:#1e3876;"/><path d="M196.87,293.36s3.97-1.67,6.17-3.6c2.2-1.93-1.34,4.19-1.34,4.19l-4.83-.59Z" style="fill:#fff;"/><path d="M62.81,233.4s-30.76,33.79-2.14,58.45l12.87-48.28-10.73-10.17h0Z" style="fill:#00519c;"/><path d="M109.45,237.32l7.3-50.95,48.61,45.43s16.1,12.88,34.77,0c18.67-12.88,155.82-137.15,155.82-137.15v56.66l-155.18,140.37s-25.11,9.01-34.77,0c-9.66-9.01-56.56-54.37-56.56-54.37Z" style="fill:#00519c;"/><path d="M179.42,237.32s13.57,0,20.7-5.52l155.82-137.15v55.05l-155.18,141.98s-14.42,4.74-21.35,4v-58.37Z" style="fill:#1e3876;"/><path d="M109.45,237.32s-14.17-35.06,7.3-50.95l-7.3,50.95Z" style="fill:#00519c;"/><polygon points="176.53 200.97 176.53 147.74 149.37 173.28 176.53 200.97" style="fill:#00519c;"/><polygon points="205.09 173.28 177.93 200.97 177.93 147.74 205.09 173.28" style="fill:#1e3876;"/><path d="M177.93,113.92s10.82.55,13.58,3.25c1.63,1.6,52.4,46.36,52.4,46.36,0,0,21.39-12.68,11.27-40.02-2.49-6.74-6.76-12.68-12.23-17.33l-58.7-49.86s-6.43-3.1-6.43-1.17l.12,58.77Z" style="fill:#f30000;"/><path d="M177.81,54.05s5.04,1.09,6.43,2.27l-6.31.57-.12-2.84h0Z" style="fill:#f30000;"/><path d="M0,266.5L159.79,120.36c2.27-2.08,4.96-3.65,7.88-4.61,3.49-1.16,8.01-2.38,10.26-1.83l-.12-59.87s-24.37,10.3-52.38,38.31C97.43,120.37,0,206.98,0,206.98v59.53Z" style="fill:#f30230;"/><polygon points="0 58.56 65.88 0 0 0 0 58.56" style="fill:#f30230;"/><polygon points="355.95 59.96 355.95 0 290.92 0 355.95 59.96" style="fill:#eb0000;"/><path d="M0,162.87L157.31,18.96s11.3-9.34,20.62-7.73V0h-62.15L0,104.6v58.27Z" style="fill:#f30230;"/><path d="M177.81,11.23l13.58,1.29,107.78,100.13c14.22-14.97,13.76-30.33,10.88-40.57-1.8-6.42-5.46-12.16-10.42-16.62L238,0h-60.19v11.23Z" style="fill:#eb0000;"/><path d="M193.32,14.2s-2.6-1.76-4.78-1.96c-2.18-.21,1.72-1.65,1.72-1.65l3.07,3.61Z" style="fill:#eb0000;"/><path d="M355.95,139.05c-1.28,1.09-3.06,2.05-5.52,2.75l-19.1-2.32s-8.73.29-11.42,7.32c-2.69,7.03-5.93,38.35-30.01,45.37l-17.12,33.63-.7,1.39-3.34,6.56s-4.09,2.75-8.94,4.55c-.36.14-.72.27-1.09.39-4.14,1.37-8.64,1.89-11.54-.63-6.6-5.74,10.51-12.6,10.51-12.6l12.45-24.09.3-.57.33-.66s-.1.06-.28.17c-.62.37-2.28,1.33-4.88,2.65-6.2,3.12-17.77,8.21-33.57,12,0,0-2,2.33-5.14,5.91-2.19,2.49-4.94,5.6-7.96,8.94-9.04,10.02-20.53,22.2-26.71,26.67-3.15,2.28-7.76,6.62-12.8,11.91-5.65,5.92-11.83,13.04-17.14,19.82-6.83,8.72-12.19,16.86-13.04,21.17,0,0,9.75,8.93,16.47,21.46,3.89,7.25,6.77,15.72,6.15,24.36,0,0-6.95,15.17-10.78,5.05l-5.1-19.37s-1.24-7.37-11.54-15.87c-10.3-8.5-16.63-17.86-16.63-17.86,0,0-2.77-3.59,3.32-9,.09-.08.18-.16.28-.25,3.58-3.08,11.7-12.17,19.08-20.97,5.93-7.06,11.39-13.94,13.63-17.35,5.03-7.68,2.08-12.32-6.02-18.91-8.1-6.6-29.37-23-29.37-23,0,0-5.76-7.23-15.57,5.95-.65.87-1.4,2.06-2.26,3.55-.89,1.54-1.9,3.39-3.03,5.5-3.8,7.1-8.99,17.16-15.76,28.51-6.8,11.4-15.21,24.09-25.43,36.35-7.05,8.45-14.95,16.69-23.79,24.15-11.47,9.69-24.5,18.09-39.26,23.93-1.2.48-2.41.94-3.63,1.38-1.85.67-3.74,1.3-5.65,1.89,0,0,2.11-1.34,5.65-3.88.53-.38,1.09-.79,1.67-1.22,7.76-5.68,20.62-15.91,33.33-29.58,7.38-7.93,14.71-17.03,20.96-27.07,1.22-1.95,2.4-3.93,3.52-5.95,3.1-5.55,5.84-11.35,8.05-17.39.67-1.83,1.36-3.64,2.07-5.43,1.78-4.51,3.66-8.91,5.62-13.18,18.71-40.93,43.91-70.19,43.91-70.19,0,0,39.67-40.07,98.72-34.43,5.44.51,11.04,1.42,16.79,2.78,8.24,1.95,15.43,3.25,21.72,4.04,45.77,5.71,43.38-16.01,43.38-16.01l2.08-16.92.57-5.48,1.85-17.84s.77-6.71,7.1-2.56c.86.55,1.83,1.32,2.91,2.33l7.09,15.8.45,1.01,8.31,5.13,3.06,1.89.34.21,9,5.56,8.85,4.7,4.61,1.94,2.02.85s3.23,6.62-2.02,11.07Z" style="fill:#395662; stroke:#fff; stroke-miterlimit:10; stroke-width:4px;"/><path d="M272.83,180.12s-5.41,21.94-8.18,24.1l5.72-3,2.46-21.1Z" style="fill:#fff;"/><path d="M218.92,229.85s7.18-24.34-9.06-37.65l-1.92-2.41,10.48,8.16s10.05,9.1,8.29,25.62l-7.79,6.28Z" style="fill:#fff;"/><path d="M313.19,115.62l16.25-17.85s8.91-2.22,5.01,4.78c-3.91,7-6.94,18.71-6.94,18.71" style="fill:#395662;"/><path d="M313.04,115.49c4.86-6.1,10.28-12.71,15.31-18.71,0,0,.27-.32.27-.32,2.74-.74,7.31-1.51,8.48,2.17.55,2.14-.49,4.01-1.32,5.8,0,0-1.54,3.29-1.54,3.29-1.91,4.06-4.35,9.69-6.54,13.6,0,0-.39-.1-.39-.1.31-7.06,2.03-14.18,5.75-20.25.32-.55.51-1.03.58-1.48.01-.04.04,0,.04-.03.03-.05-.27-.25-.72-.33-.88-.19-2.13-.1-3.17.08l.74-.44c-2.11,2.15-6.4,6.43-8.54,8.54-2.88,2.82-5.74,5.66-8.65,8.44l-.3-.27h0Z" style="fill:#fff;"/><path d="M497.83,218.44h-72.93v-122.61h70.11v21.81h-43.44v28.26h40.45v21.79h-40.45v29.11h46.26v21.64Z" style="fill:#f4001b;"/><path d="M618.41,218.44h-27.22l-51.23-78.37c-1.43-2.22-2.65-4.16-3.68-5.82-.87-1.38-1.67-2.81-2.4-4.27h-.34c.23,2.1.4,4.8.51,8.08s.17,7.14.17,11.58v68.83h-25.28v-122.64h28.99l49.5,76.01,3.2,5.09c1.06,1.69,2.02,3.3,2.86,4.83h.35c-.29-2.11-.46-4.24-.51-6.37-.12-2.82-.17-6.31-.17-10.48v-69.09h25.23v122.61Z" style="fill:#f4001b;"/><path d="M738.04,209.21c-6.17,3.71-12.83,6.51-19.79,8.34-8.03,2.1-16.3,3.12-24.6,3.04-19.33,0-34.73-5.15-46.22-15.44-11.49-10.29-17.23-25.67-17.23-46.13,0-18.75,5.87-34.31,17.62-46.69,11.74-12.37,27.9-18.56,48.48-18.56,7.14-.03,14.27.66,21.27,2.06,6.89,1.45,13.61,3.61,20.06,6.45l-8.64,20.69c-5.08-2.26-10.39-3.99-15.82-5.17-5.55-1.1-11.19-1.63-16.85-1.58-11.64,0-20.88,3.49-27.7,10.48-6.82,6.99-10.25,17.36-10.27,31.13,0,13.79,3.36,23.97,10.09,30.53,6.73,6.56,15.57,9.83,26.51,9.83,3.07.03,6.13-.24,9.15-.8,2.46-.46,4.87-1.19,7.17-2.19v-24.72h-24.71v-21.47h51.47v60.2Z" style="fill:#f4001b;"/><path d="M825.69,218.44h-72.34v-122.61h26.67v100.89h45.66v21.71Z" style="fill:#f4001b;"/><path d="M860.25,218.44h-26.67v-122.61h26.67v122.61Z" style="fill:#f4001b;"/><path d="M870.1,210.15l10.99-20.86c5.05,3.19,10.48,5.73,16.16,7.57,4.73,1.35,9.62,2.03,14.54,2,6.56,0,11.48-1.3,14.75-3.89,3.28-2.61,5.11-6.63,4.91-10.82,0-4.27-1.32-7.6-3.94-9.97s-7.38-4.37-14.29-6.03c-13.57-3.19-23.43-7.65-29.58-13.38s-9.22-13.7-9.2-23.9c0-10.32,3.98-19.08,11.93-26.29,7.96-7.21,19.11-10.82,33.47-10.82,5.95,0,11.87.69,17.66,2.06,5.76,1.37,11.34,3.41,16.63,6.08l-10.19,21.01c-4.19-2.42-8.65-4.33-13.3-5.68-3.82-1.11-7.78-1.71-11.76-1.76-5.65,0-10.06,1.13-13.21,3.38-3.14,2.21-4.92,5.88-4.74,9.71-.17,3.48,1.46,6.81,4.32,8.81,2.88,2.05,8.05,3.99,15.52,5.82,13.19,3.1,22.71,7.62,28.56,13.55,5.84,5.93,8.78,14.3,8.8,25.1,0,11.51-4.05,20.84-12.14,28-8.1,7.16-19.81,10.73-35.14,10.73-7.17-.04-14.3-.96-21.25-2.74-6.83-1.66-13.4-4.26-19.52-7.71Z" style="fill:#f4001b;"/><path d="M1074.36,218.44h-26.78v-50.37h-51.69v50.37h-26.68v-122.61h26.68v49.25h51.69v-49.25h26.78v122.61Z" style="fill:#f4001b;"/><g id="MATE"><path d="M524.94,350.42h-15.71v-59.38c0-2.7.07-5.66.22-8.91s.36-6.66.62-10.27h-.45c-.53,2.52-1.02,4.68-1.47,6.46-.35,1.46-.8,2.9-1.34,4.3l-27.12,67.81h-11.08l-27.26-67.28c-.35-.95-.77-2.33-1.27-4.24-.5-1.91-1.01-4.21-1.54-6.99h-.45c.26,3.26.44,6.66.56,10.18s.16,7.2.16,11.01v57.37h-14.67v-93.49h22.42l24,60.44c.95,2.26,1.73,4.37,2.33,6.32.59,1.8,1.08,3.63,1.47,5.48h.4c.78-2.52,1.51-4.79,2.21-6.79.7-1.99,1.33-3.74,1.9-5.22l24.25-60.24h21.77l.05,93.42Z" style="fill:#212c69;"/><path d="M530.65,350.42l34.93-93.49h18l34.68,93.49h-17.46l-7.82-22.35h-37.3l-7.64,22.35h-17.38ZM559.76,315.09h28.96l-12.81-36.9c-.3-.95-.57-1.93-.81-2.91s-.47-2.18-.69-3.61h-.38c-.22,1.26-.45,2.4-.69,3.42s-.51,2-.81,2.96l-12.76,37.04Z" style="fill:#212c69;"/><path d="M675.02,270.37h-26.89v80.05h-15.85v-80.05h-26.78v-13.44h69.52v13.44Z" style="fill:#212c69;"/><path d="M734.72,350.42h-52.72v-93.49h50.59v13.44h-34.71v26.08h32.27v13.37h-32.27v27.24h36.84v13.37Z" style="fill:#212c69;"/></g></svg>